<svg width="205" height="410" viewBox="0 0 205 410" fill="none" xmlns="http://www.w3.org/2000/svg">
<path d="M-102.329 233.4C-96.1576 255.237 -83.1355 274.514 -65.1815 288.392C-47.2275 302.27 -25.291 310.015 -2.6035 310.486C20.084 310.956 42.3228 304.128 60.8368 291.006C79.3509 277.885 93.1612 259.164 100.233 237.602C107.305 216.04 107.265 192.776 100.119 171.238C92.9727 149.701 79.098 131.028 60.539 117.97C41.9799 104.912 19.7177 98.1604 -2.96807 98.7091C-25.6538 99.2578 -47.5635 107.078 -65.4696 121.018L-58.5755 129.874C-42.5668 117.411 -22.9786 110.419 -2.69669 109.929C17.5852 109.438 37.4885 115.475 54.081 127.149C70.6736 138.823 83.0781 155.517 89.4672 174.773C95.8562 194.028 95.892 214.827 89.5693 234.104C83.2466 253.382 70.8996 270.119 54.3474 281.85C37.7951 293.581 17.9127 299.686 -2.37076 299.265C-22.6542 298.844 -42.2663 291.92 -58.3179 279.513C-74.3694 267.105 -86.0117 249.871 -91.5296 230.348L-102.329 233.4Z" fill="#FAAC31"/>
<path d="M-71.1387 224.585C-66.8556 239.739 -57.8187 253.117 -45.3592 262.748C-32.8997 272.379 -17.6764 277.753 -1.93196 278.08C13.8125 278.407 29.2455 273.668 42.0937 264.562C54.9419 255.456 64.5258 242.464 69.4336 227.501C74.3414 212.537 74.3136 196.393 69.3543 181.447C64.395 166.5 54.7664 153.542 41.887 144.48C29.0075 135.418 13.5582 130.733 -2.18496 131.114C-17.9282 131.494 -33.1328 136.921 -45.5591 146.595L-13.8796 187.289C-10.1719 184.402 -5.63526 182.783 -0.937934 182.669C3.7594 182.556 8.36904 183.954 12.2119 186.658C16.0548 189.361 18.9277 193.228 20.4074 197.687C21.8871 202.147 21.8954 206.964 20.4311 211.429C18.9667 215.893 16.1071 219.77 12.2736 222.487C8.44005 225.204 3.83525 226.618 -0.86244 226.52C-5.56014 226.423 -10.1023 224.819 -13.8199 221.945C-17.5375 219.072 -20.2339 215.08 -21.5118 210.559L-71.1387 224.585Z" fill="#FFA236"/>
</svg>
