<svg width="274" height="209" viewBox="0 0 274 209" fill="none" xmlns="http://www.w3.org/2000/svg">
<path d="M52.8889 35.0917C53.5159 30.7665 52.78 26.3533 50.7835 22.4656C48.7869 18.5779 45.6288 15.4086 41.7482 13.3983C37.8675 11.388 33.457 10.6365 29.1296 11.2482C24.8022 11.8598 20.7728 13.8044 17.6014 16.8115C14.4299 19.8186 12.274 23.739 11.4332 28.0278C10.5924 32.3166 11.1085 36.7608 12.9098 40.7428C14.711 44.7248 17.7079 48.0468 21.4841 50.2472C25.2602 52.4475 29.628 53.4169 33.9805 53.0207L33.0534 42.838C30.8168 43.0417 28.5723 42.5435 26.6319 41.4128C24.6914 40.2821 23.1514 38.575 22.2257 36.5288C21.3001 34.4825 21.0349 32.1988 21.467 29.9949C21.8991 27.791 23.0069 25.7764 24.6366 24.2311C26.2663 22.6859 28.3369 21.6866 30.5607 21.3723C32.7844 21.0579 35.0509 21.4441 37.045 22.4772C39.0392 23.5102 40.662 25.1388 41.688 27.1366C42.714 29.1344 43.0921 31.4022 42.7699 33.6248L52.8889 35.0917Z" fill="#FAAC31"/>
<g filter="url(#filter0_d_308:156)">
<path d="M48.3955 33.9755C48.8244 30.2953 47.9969 26.5782 46.0474 23.4274C44.098 20.2767 41.1409 17.8772 37.6561 16.6185C34.1714 15.3598 30.3635 15.3158 26.8506 16.4935C23.3377 17.6712 20.3259 20.0016 18.304 23.1064C16.2822 26.2112 15.3689 29.9082 15.7125 33.5973C16.0562 37.2864 17.6365 40.7512 20.1969 43.4292C22.7574 46.1071 26.1478 47.8412 29.8178 48.3499C33.4878 48.8586 37.222 48.112 40.4144 46.2314L35.2175 37.4098C34.0143 38.1186 32.6068 38.4 31.2235 38.2083C29.8402 38.0166 28.5623 37.363 27.5972 36.3536C26.6321 35.3442 26.0365 34.0383 25.907 32.6478C25.7774 31.2573 26.1216 29.8638 26.8837 28.6936C27.6458 27.5233 28.781 26.6449 30.1051 26.201C31.4292 25.7571 32.8644 25.7737 34.1779 26.2482C35.4914 26.7226 36.6059 27.627 37.3407 28.8146C38.0755 30.0021 38.3874 31.4032 38.2258 32.7903L48.3955 33.9755Z" fill="white"/>
</g>
<path d="M60.7998 35.4215C61.519 29.2497 60.2314 23.0103 57.1276 17.6274C54.0238 12.2446 49.2688 8.00448 43.5669 5.53514C37.865 3.0658 31.5195 2.49853 25.47 3.91734C19.4205 5.33615 13.9889 8.6656 9.97949 13.4126C5.97009 18.1595 3.59616 24.0716 3.20929 30.2732C2.82241 36.4747 4.44317 42.636 7.83152 47.8445C11.2199 53.0529 16.1956 57.0316 22.0218 59.1913C27.8481 61.3509 34.2149 61.5767 40.1795 59.8352L39.0715 56.0405C33.9223 57.544 28.4257 57.3491 23.3958 55.4846C18.366 53.6202 14.0703 50.1853 11.1451 45.6888C8.21994 41.1923 6.82072 35.8732 7.15471 30.5193C7.4887 25.1654 9.53814 20.0615 12.9995 15.9633C16.4609 11.8652 21.1501 8.99088 26.3726 7.766C31.5952 6.54113 37.0734 7.03086 41.9959 9.16267C46.9184 11.2945 51.0234 14.955 53.703 19.6021C56.3826 24.2492 57.4942 29.6357 56.8733 34.964L60.7998 35.4215Z" fill="#FAAC31"/>
<path d="M40.4291 175.605C38.3754 174.122 35.9106 173.316 33.3773 173.298C30.8441 173.28 28.3681 174.052 26.2936 175.506C24.2191 176.96 22.6491 179.024 21.8017 181.411C20.9544 183.799 20.8717 186.391 21.5653 188.827C22.2589 191.264 23.6942 193.424 25.6719 195.007C27.6496 196.59 30.0713 197.518 32.6005 197.662C35.1298 197.805 37.641 197.157 39.785 195.808C41.9291 194.458 43.5996 192.475 44.5644 190.132L39.0842 187.875C38.5884 189.079 37.73 190.098 36.6282 190.792C35.5265 191.485 34.236 191.818 32.9363 191.744C31.6366 191.671 30.3922 191.194 29.3759 190.38C28.3596 189.567 27.622 188.457 27.2656 187.205C26.9092 185.952 26.9517 184.621 27.3871 183.394C27.8226 182.167 28.6294 181.106 29.6954 180.359C30.7614 179.612 32.0337 179.215 33.3355 179.224C34.6373 179.234 35.9038 179.648 36.9592 180.41L40.4291 175.605Z" fill="#FAAC31"/>
<g filter="url(#filter1_d_308:156)">
<path d="M38.6483 177.615C36.8727 176.407 34.7409 175.834 32.5989 175.99C30.4569 176.146 28.4304 177.021 26.8484 178.473C25.2663 179.926 24.2215 181.87 23.8835 183.991C23.5456 186.112 23.9344 188.285 24.9867 190.157C26.039 192.029 27.6932 193.491 29.6807 194.304C31.6682 195.118 33.8724 195.236 35.9356 194.64C37.9987 194.043 39.7997 192.767 41.0462 191.018C42.2927 189.269 42.9115 187.15 42.8023 185.005L33.2897 185.49L38.6483 177.615Z" fill="white"/>
</g>
<path d="M42.7212 171.63C39.7436 169.604 36.1924 168.591 32.5938 168.74C28.9952 168.89 25.5405 170.195 22.7413 172.461C19.9421 174.728 17.9473 177.835 17.0523 181.324C16.1573 184.813 16.4098 188.497 17.7723 191.831C19.1347 195.165 21.5348 197.972 24.617 199.835C27.6991 201.699 31.2995 202.52 34.8849 202.177C38.4703 201.835 41.85 200.347 44.5235 197.933C47.197 195.52 49.0221 192.309 49.7284 188.777L47.4815 188.328C46.8717 191.377 45.2961 194.149 42.988 196.232C40.68 198.316 37.7623 199.601 34.667 199.896C31.5716 200.192 28.4634 199.483 25.8025 197.874C23.1416 196.266 21.0696 193.843 19.8934 190.964C18.7171 188.086 18.4992 184.905 19.2718 181.893C20.0445 178.882 21.7666 176.199 24.1832 174.242C26.5998 172.285 29.5823 171.159 32.689 171.03C35.7958 170.901 38.8615 171.775 41.4321 173.525L42.7212 171.63Z" fill="#FAAC31"/>
<path d="M258.933 178.921C261.324 175.263 262.517 170.951 262.345 166.584C262.173 162.217 260.644 158.012 257.973 154.553C255.301 151.095 251.618 148.554 247.436 147.285C243.254 146.016 238.78 146.081 234.637 147.472C230.493 148.862 226.886 151.509 224.316 155.043C221.746 158.578 220.341 162.826 220.296 167.196C220.251 171.567 221.569 175.842 224.066 179.429C226.563 183.016 230.115 185.736 234.229 187.211L237.68 177.586C235.566 176.828 233.741 175.43 232.457 173.587C231.174 171.744 230.497 169.547 230.52 167.301C230.543 165.055 231.265 162.873 232.586 161.056C233.907 159.24 235.76 157.88 237.889 157.165C240.019 156.451 242.317 156.417 244.467 157.069C246.616 157.721 248.508 159.027 249.881 160.804C251.254 162.581 252.039 164.742 252.128 166.986C252.216 169.23 251.603 171.446 250.374 173.326L258.933 178.921Z" fill="#FAAC31"/>
<g filter="url(#filter2_d_308:156)">
<path d="M231.439 154.29C234.308 152.127 237.807 150.965 241.4 150.98C244.993 150.995 248.482 152.188 251.333 154.375C254.183 156.562 256.239 159.623 257.184 163.09C258.129 166.556 257.911 170.237 256.565 173.568C255.219 176.9 252.818 179.698 249.73 181.535C246.642 183.372 243.037 184.145 239.467 183.738C235.897 183.331 232.559 181.764 229.964 179.279C227.369 176.794 225.661 173.527 225.099 169.978L231.398 168.982C231.742 171.154 232.787 173.153 234.375 174.674C235.963 176.194 238.006 177.153 240.19 177.402C242.374 177.651 244.58 177.178 246.47 176.054C248.36 174.93 249.829 173.218 250.653 171.179C251.476 169.141 251.609 166.888 251.031 164.767C250.453 162.646 249.195 160.773 247.451 159.435C245.706 158.096 243.571 157.366 241.373 157.357C239.174 157.348 237.033 158.059 235.278 159.383L231.439 154.29Z" fill="white"/>
</g>
<path d="M212.526 170.009C213.084 176.198 215.62 182.042 219.759 186.677C223.898 191.311 229.42 194.489 235.506 195.74C241.592 196.992 247.92 196.249 253.551 193.624C259.183 190.998 263.819 186.628 266.773 181.162C269.727 175.695 270.842 169.422 269.953 163.273C269.063 157.123 266.217 151.423 261.835 147.018C257.453 142.612 251.769 139.735 245.624 138.813C239.48 137.89 233.201 138.971 227.719 141.895L229.579 145.383C234.312 142.858 239.732 141.925 245.037 142.722C250.342 143.518 255.249 146.002 259.032 149.806C262.815 153.609 265.272 158.53 266.04 163.839C266.808 169.148 265.846 174.563 263.295 179.282C260.745 184.001 256.743 187.774 251.881 190.041C247.019 192.308 241.557 192.949 236.302 191.868C231.048 190.788 226.281 188.044 222.708 184.043C219.135 180.042 216.945 174.997 216.463 169.654L212.526 170.009Z" fill="#FAAC31"/>
<rect x="105.738" y="34.248" width="30.436" height="65.22" transform="rotate(84.9725 105.738 34.248)" fill="#FAAC31"/>
<rect x="191.988" y="146.233" width="63.3353" height="27.4574" transform="rotate(-58.652 191.988 146.233)" fill="#FAAC31"/>
<rect x="37.7773" y="179.065" width="70.655" height="7.98095" transform="rotate(-40.6909 37.7773 179.065)" fill="#FAAC31"/>
<path fill-rule="evenodd" clip-rule="evenodd" d="M165.774 124.409L178.513 147.716L118.316 180.534L95.3904 138.482L157.213 106.559L153.551 99.4679L91.5692 131.473L69.9277 91.7764L127.191 60.558L112.622 33.8353L170.84 2.09668L221.05 94.1968L165.774 124.409Z" fill="#FAAC31"/>
<defs>
<filter id="filter0_d_308:156" x="10.6426" y="10.6416" width="42.8633" height="42.8643" filterUnits="userSpaceOnUse" color-interpolation-filters="sRGB">
<feFlood flood-opacity="0" result="BackgroundImageFix"/>
<feColorMatrix in="SourceAlpha" type="matrix" values="0 0 0 0 0 0 0 0 0 0 0 0 0 0 0 0 0 0 127 0" result="hardAlpha"/>
<feMorphology radius="1" operator="dilate" in="SourceAlpha" result="effect1_dropShadow_308:156"/>
<feOffset/>
<feGaussianBlur stdDeviation="2"/>
<feComposite in2="hardAlpha" operator="out"/>
<feColorMatrix type="matrix" values="0 0 0 0 0 0 0 0 0 0 0 0 0 0 0 0 0 0 0.25 0"/>
<feBlend mode="normal" in2="BackgroundImageFix" result="effect1_dropShadow_308:156"/>
<feBlend mode="normal" in="SourceGraphic" in2="effect1_dropShadow_308:156" result="shape"/>
</filter>
<filter id="filter1_d_308:156" x="18.7656" y="170.965" width="29.0488" height="29.0498" filterUnits="userSpaceOnUse" color-interpolation-filters="sRGB">
<feFlood flood-opacity="0" result="BackgroundImageFix"/>
<feColorMatrix in="SourceAlpha" type="matrix" values="0 0 0 0 0 0 0 0 0 0 0 0 0 0 0 0 0 0 127 0" result="hardAlpha"/>
<feMorphology radius="1" operator="dilate" in="SourceAlpha" result="effect1_dropShadow_308:156"/>
<feOffset/>
<feGaussianBlur stdDeviation="2"/>
<feComposite in2="hardAlpha" operator="out"/>
<feColorMatrix type="matrix" values="0 0 0 0 0 0 0 0 0 0 0 0 0 0 0 0 0 0 0.25 0"/>
<feBlend mode="normal" in2="BackgroundImageFix" result="effect1_dropShadow_308:156"/>
<feBlend mode="normal" in="SourceGraphic" in2="effect1_dropShadow_308:156" result="shape"/>
</filter>
<filter id="filter2_d_308:156" x="220.1" y="145.979" width="42.6621" height="42.8643" filterUnits="userSpaceOnUse" color-interpolation-filters="sRGB">
<feFlood flood-opacity="0" result="BackgroundImageFix"/>
<feColorMatrix in="SourceAlpha" type="matrix" values="0 0 0 0 0 0 0 0 0 0 0 0 0 0 0 0 0 0 127 0" result="hardAlpha"/>
<feMorphology radius="1" operator="dilate" in="SourceAlpha" result="effect1_dropShadow_308:156"/>
<feOffset/>
<feGaussianBlur stdDeviation="2"/>
<feComposite in2="hardAlpha" operator="out"/>
<feColorMatrix type="matrix" values="0 0 0 0 0 0 0 0 0 0 0 0 0 0 0 0 0 0 0.25 0"/>
<feBlend mode="normal" in2="BackgroundImageFix" result="effect1_dropShadow_308:156"/>
<feBlend mode="normal" in="SourceGraphic" in2="effect1_dropShadow_308:156" result="shape"/>
</filter>
</defs>
</svg>
