<svg width="53" height="53" viewBox="0 0 53 53" fill="none" xmlns="http://www.w3.org/2000/svg">
<path d="M25.9995 0.228829C31.2694 0.182361 36.4291 1.73849 40.7946 4.69097C45.1601 7.64345 48.5253 11.8529 50.4441 16.7613C52.363 21.6697 52.7449 27.0454 51.5392 32.1758C50.3336 37.3062 47.5973 41.9491 43.6931 45.4891C39.7888 49.0291 34.901 51.299 29.6774 51.9981C24.4538 52.6971 19.1411 51.7923 14.4435 49.4034C9.7458 47.0145 5.88501 43.2545 3.3728 38.6216C0.86059 33.9888 -0.184411 28.7018 0.376301 23.4616L9.67772 24.4568C9.31875 27.8117 9.98777 31.1965 11.5961 34.1625C13.2045 37.1285 15.6762 39.5357 18.6837 41.0651C21.6912 42.5945 25.0924 43.1738 28.4366 42.7262C31.7808 42.2787 34.9101 40.8254 37.4096 38.5591C39.9091 36.2927 41.6609 33.3203 42.4328 30.0358C43.2047 26.7512 42.9602 23.3097 41.7317 20.1672C40.5032 17.0248 38.3488 14.3299 35.554 12.4397C32.7591 10.5495 29.4558 9.55323 26.082 9.58298L25.9995 0.228829Z" fill="#FFA236"/>
</svg>
