<svg width="64" height="64" viewBox="0 0 64 64" fill="none" xmlns="http://www.w3.org/2000/svg">
<path d="M37.3101 51.5597C33.3688 52.6824 29.1831 52.6111 25.2824 51.355C21.3816 50.0988 17.9409 47.7141 15.3954 44.5025C12.8499 41.2908 11.3139 37.3965 10.9817 33.3119C10.6495 29.2273 11.536 25.136 13.529 21.5552C15.5221 17.9744 18.5322 15.0651 22.1787 13.1951C25.8252 11.325 29.9444 10.5783 34.0153 11.0494C38.0862 11.5204 41.926 13.188 45.0491 15.8413C48.1723 18.4947 50.4385 22.0145 51.5612 25.9558L31.6337 31.6322L37.3101 51.5597Z" fill="#FAAC31"/>
<g filter="url(#filter0_d_308:180)">
<circle cx="31.6325" cy="31.6322" r="16.1876" transform="rotate(173.271 31.6325 31.6322)" fill="white"/>
</g>
<path d="M3.33926 34.9706C4.05652 41.0497 6.71257 46.736 10.9141 51.1876C15.1155 55.6391 20.639 58.6191 26.6665 59.6863C32.6939 60.7534 38.9048 59.8509 44.3792 57.1124C49.8537 54.3739 54.3005 49.945 57.0613 44.4818C59.822 39.0185 60.7498 32.8114 59.7072 26.7797C58.6646 20.7479 55.7071 15.2124 51.2727 10.9928C46.8383 6.77324 41.1628 4.09407 35.0867 3.35209C29.0107 2.61011 22.8572 3.84477 17.5377 6.87322L19.4644 10.2575C24.0568 7.643 29.3692 6.5771 34.6147 7.21766C39.8602 7.85822 44.7599 10.1712 48.5882 13.814C52.4165 17.4568 54.9698 22.2357 55.8698 27.443C56.7699 32.6502 55.969 38.0089 53.5856 42.7254C51.2022 47.4419 47.3631 51.2654 42.637 53.6295C37.9108 55.9937 32.5489 56.7729 27.3454 55.8516C22.1418 54.9303 17.3733 52.3577 13.7461 48.5146C10.1189 44.6715 7.82593 39.7624 7.20672 34.5143L3.33926 34.9706Z" fill="#FAAC31"/>
<defs>
<filter id="filter0_d_308:180" x="10.4434" y="10.4434" width="42.3789" height="42.3779" filterUnits="userSpaceOnUse" color-interpolation-filters="sRGB">
<feFlood flood-opacity="0" result="BackgroundImageFix"/>
<feColorMatrix in="SourceAlpha" type="matrix" values="0 0 0 0 0 0 0 0 0 0 0 0 0 0 0 0 0 0 127 0" result="hardAlpha"/>
<feMorphology radius="1" operator="dilate" in="SourceAlpha" result="effect1_dropShadow_308:180"/>
<feOffset/>
<feGaussianBlur stdDeviation="2"/>
<feComposite in2="hardAlpha" operator="out"/>
<feColorMatrix type="matrix" values="0 0 0 0 0 0 0 0 0 0 0 0 0 0 0 0 0 0 0.25 0"/>
<feBlend mode="normal" in2="BackgroundImageFix" result="effect1_dropShadow_308:180"/>
<feBlend mode="normal" in="SourceGraphic" in2="effect1_dropShadow_308:180" result="shape"/>
</filter>
</defs>
</svg>
