<svg width="49" height="49" viewBox="0 0 49 49" fill="none" xmlns="http://www.w3.org/2000/svg">
<path d="M35.2283 29.5254C36.3605 27.2083 36.7428 24.5961 36.3221 22.0517C35.9014 19.5074 34.6985 17.1573 32.8807 15.328C31.0628 13.4987 28.7203 12.2812 26.1786 11.8445C23.637 11.4079 21.0224 11.7738 18.6983 12.8915C16.3742 14.0092 14.4559 15.8231 13.2102 18.0812C11.9644 20.3392 11.453 22.9293 11.747 25.4914C12.041 28.0534 13.1258 30.4603 14.8506 32.3775C16.5755 34.2947 18.8547 35.627 21.3716 36.1892L22.6869 30.3009C21.3935 30.012 20.2223 29.3273 19.3359 28.3422C18.4496 27.357 17.8921 26.1201 17.7411 24.8036C17.59 23.487 17.8528 22.156 18.493 20.9957C19.1331 19.8353 20.1188 18.9032 21.3131 18.3289C22.5074 17.7545 23.851 17.5665 25.1571 17.7908C26.4632 18.0152 27.6669 18.6409 28.6011 19.5809C29.5352 20.5209 30.1533 21.7285 30.3695 23.036C30.5857 24.3435 30.3893 25.6858 29.8075 26.8765L35.2283 29.5254Z" fill="#FAAC31"/>
<g filter="url(#filter0_d_323:14)">
<circle cx="24.0763" cy="24.0769" r="9.69621" transform="rotate(-48.9581 24.0763 24.0769)" fill="white"/>
</g>
<path d="M35.2818 11.2051C32.5164 8.79765 29.0491 7.34484 25.3935 7.06187C21.738 6.77889 18.0885 7.68079 14.9855 9.634C11.8826 11.5872 9.49118 14.4879 8.16555 17.9063C6.83992 21.3248 6.65054 25.0794 7.62545 28.6139C8.60035 32.1484 10.6877 35.275 13.5784 37.5305C16.469 39.786 20.0093 41.0506 23.6748 41.1369C27.3403 41.2232 30.9361 40.1267 33.9297 38.0097C36.9233 35.8927 39.1555 32.8679 40.2957 29.3831L38.0787 28.6578C37.0944 31.6662 35.1673 34.2776 32.5829 36.1052C29.9985 37.9328 26.8941 38.8794 23.7297 38.8049C20.5652 38.7304 17.5089 37.6387 15.0133 35.6915C12.5178 33.7442 10.7158 31.045 9.87411 27.9937C9.03246 24.9423 9.19596 21.7009 10.3404 18.7497C11.4848 15.7985 13.5493 13.2943 16.2281 11.6081C18.9069 9.92187 22.0576 9.14324 25.2135 9.38754C28.3694 9.63184 31.3627 10.8861 33.7501 12.9645L35.2818 11.2051Z" fill="#FAAC31"/>
<defs>
<filter id="filter0_d_323:14" x="9.38086" y="9.38086" width="29.3926" height="29.3926" filterUnits="userSpaceOnUse" color-interpolation-filters="sRGB">
<feFlood flood-opacity="0" result="BackgroundImageFix"/>
<feColorMatrix in="SourceAlpha" type="matrix" values="0 0 0 0 0 0 0 0 0 0 0 0 0 0 0 0 0 0 127 0" result="hardAlpha"/>
<feMorphology radius="1" operator="dilate" in="SourceAlpha" result="effect1_dropShadow_323:14"/>
<feOffset/>
<feGaussianBlur stdDeviation="2"/>
<feComposite in2="hardAlpha" operator="out"/>
<feColorMatrix type="matrix" values="0 0 0 0 0 0 0 0 0 0 0 0 0 0 0 0 0 0 0.25 0"/>
<feBlend mode="normal" in2="BackgroundImageFix" result="effect1_dropShadow_323:14"/>
<feBlend mode="normal" in="SourceGraphic" in2="effect1_dropShadow_323:14" result="shape"/>
</filter>
</defs>
</svg>
